<svg xmlns="http://www.w3.org/2000/svg" version="1.1" xmlns:xlink="http://www.w3.org/1999/xlink" xmlns:svgjs="http://svgjs.dev/svgjs" width="2000" height="1247" viewBox="0 0 2000 1247"><g transform="matrix(1,0,0,1,-1.2121212121212466,0.504858299595071)"><svg viewBox="0 0 396 247" data-background-color="#ffffff" preserveAspectRatio="xMidYMid meet" height="1247" width="2000" xmlns="http://www.w3.org/2000/svg" xmlns:xlink="http://www.w3.org/1999/xlink"><g id="tight-bounds" transform="matrix(1,0,0,1,0.2400000000000091,-0.09999999999999432)"><svg viewBox="0 0 395.52 247.2" height="247.2" width="395.52"><g><svg></svg></g><g><svg viewBox="0 0 395.52 247.2" height="247.2" width="395.52"><g transform="matrix(1,0,0,1,75.54432,105.39537615841584)"><svg viewBox="0 0 244.43135999999998 36.40924768316831" height="36.40924768316831" width="244.43135999999998"><g><svg viewBox="0 0 244.43135999999998 36.40924768316831" height="36.40924768316831" width="244.43135999999998"><g><svg viewBox="0 0 244.43135999999998 36.40924768316831" height="36.40924768316831" width="244.43135999999998"><g id="textblocktransform"><svg viewBox="0 0 244.43135999999998 36.40924768316831" height="36.40924768316831" width="244.43135999999998" id="textblock"><g><svg viewBox="0 0 244.43135999999998 36.40924768316831" height="36.40924768316831" width="244.43135999999998"><g transform="matrix(1,0,0,1,0,0)"><svg width="244.43135999999998" viewBox="3.95 -33.25 227.23000000000002 33.85" height="36.40924768316831" data-palette-color="#3d3839"><g class="wordmark-text-0" data-fill-palette-color="primary" id="text-0"><path d="M10.8 0L3.95 0 3.95-32.65 14.85-32.65Q18.45-32.65 21.35-31.68 24.25-30.7 25.98-28.45 27.7-26.2 27.7-22.3L27.7-22.3Q27.7-18.55 26-16.13 24.3-13.7 21.43-12.55 18.55-11.4 15.05-11.4L15.05-11.4 10.8-11.4 10.8 0ZM10.8-27.2L10.8-16.85 14.6-16.85Q17.85-16.85 19.43-18.23 21-19.6 21-22.3L21-22.3Q21-25 19.33-26.1 17.65-27.2 14.4-27.2L14.4-27.2 10.8-27.2ZM54.25 0L33.55 0 33.55-32.65 53.75-32.65 53.75-26.9 40.4-26.9 40.4-19.75 51.75-19.75 51.75-14 40.4-14 40.4-5.75 54.25-5.75 54.25 0ZM63.59 0L56.59 0 67-32.65 75.14-32.65 85.5 0 78.25 0 73.75-16.8Q73.05-19.3 72.37-22.05 71.69-24.8 71-27.4L71-27.4 70.8-27.4Q70.19-24.8 69.52-22.05 68.84-19.3 68.14-16.8L68.14-16.8 63.59 0ZM78.8-8.15L63.2-8.15 63.2-13.45 78.8-13.45 78.8-8.15ZM96.04 0L89.19 0 89.19-32.65 96.04-32.65 96.04-18.8 96.24-18.8 106.59-32.65 114.14-32.65 104.19-19.7 115.89 0 108.39 0 100.14-14.3 96.04-9 96.04 0ZM126.49 0L119.64 0 119.64-32.65 130.54-32.65Q134.14-32.65 137.04-31.68 139.94-30.7 141.67-28.45 143.39-26.2 143.39-22.3L143.39-22.3Q143.39-18.55 141.69-16.13 139.99-13.7 137.12-12.55 134.24-11.4 130.74-11.4L130.74-11.4 126.49-11.4 126.49 0ZM126.49-27.2L126.49-16.85 130.29-16.85Q133.54-16.85 135.12-18.23 136.69-19.6 136.69-22.3L136.69-22.3Q136.69-25 135.02-26.1 133.34-27.2 130.09-27.2L130.09-27.2 126.49-27.2ZM152.04 0L145.04 0 155.44-32.65 163.59-32.65 173.94 0 166.69 0 162.19-16.8Q161.49-19.3 160.81-22.05 160.14-24.8 159.44-27.4L159.44-27.4 159.24-27.4Q158.64-24.8 157.96-22.05 157.29-19.3 156.59-16.8L156.59-16.8 152.04 0ZM167.24-8.15L151.64-8.15 151.64-13.45 167.24-13.45 167.24-8.15ZM187.09 0L177.64 0 177.64-32.65 186.69-32.65Q191.69-32.65 195.34-30.9 198.99-29.15 200.96-25.58 202.94-22 202.94-16.45L202.94-16.45Q202.94-10.9 200.96-7.25 198.99-3.6 195.44-1.8 191.89 0 187.09 0L187.09 0ZM184.49-27.1L184.49-5.55 186.29-5.55Q189.19-5.55 191.36-6.65 193.54-7.75 194.71-10.13 195.89-12.5 195.89-16.45L195.89-16.45Q195.89-20.4 194.71-22.73 193.54-25.05 191.36-26.08 189.19-27.1 186.29-27.1L186.29-27.1 184.49-27.1ZM219.08 0.6L219.08 0.6Q215.88 0.6 212.71-0.63 209.53-1.85 207.08-4.15L207.08-4.15 211.03-8.85Q212.78-7.25 214.96-6.3 217.13-5.35 219.23-5.35L219.23-5.35Q221.68-5.35 222.93-6.28 224.18-7.2 224.18-8.85L224.18-8.85Q224.18-10 223.56-10.68 222.93-11.35 221.86-11.88 220.78-12.4 219.33-13L219.33-13 215.03-14.85Q213.38-15.55 211.86-16.7 210.33-17.85 209.38-19.58 208.43-21.3 208.43-23.7L208.43-23.7Q208.43-26.35 209.91-28.5 211.38-30.65 213.96-31.95 216.53-33.25 219.83-33.25L219.83-33.25Q222.68-33.25 225.41-32.15 228.13-31.05 230.18-29L230.18-29 226.73-24.65Q225.13-25.95 223.48-26.63 221.83-27.3 219.83-27.3L219.83-27.3Q217.83-27.3 216.61-26.45 215.38-25.6 215.38-24.1L215.38-24.1Q215.38-23 216.03-22.3 216.68-21.6 217.86-21.08 219.03-20.55 220.43-19.95L220.43-19.95 224.63-18.25Q226.63-17.45 228.08-16.25 229.53-15.05 230.36-13.38 231.18-11.7 231.18-9.4L231.18-9.4Q231.18-6.7 229.76-4.42 228.33-2.15 225.61-0.78 222.88 0.6 219.08 0.6Z" fill="#000000" data-fill-palette-color="primary"></path></g></svg></g></svg></g></svg></g></svg></g></svg></g></svg></g><path d="M180.787 99.395L180.787 36.418 6.423 36.418 6.423 210.782 180.787 210.782 180.787 147.805 177.504 147.805 177.504 207.499 9.706 207.499 9.706 39.701 177.504 39.701 177.504 99.395Z" fill="#000000" stroke="transparent" data-fill-palette-color="tertiary"></path></svg></g><defs></defs></svg><rect width="395.52" height="247.2" fill="none" stroke="none" visibility="hidden"></rect></g></svg></g></svg>